<svg xmlns="http://www.w3.org/2000/svg" viewBox="0 0 512 512" width="512" height="512">
  <defs>
    <linearGradient id="g" x1="0" y1="0" x2="1" y2="1">
      <stop offset="0" stop-color="#6366f1"/>
      <stop offset="1" stop-color="#7c3aed"/>
    </linearGradient>
  </defs>
  <rect width="512" height="512" rx="112" fill="url(#g)"/>
  <g fill="none" stroke="#ffffff" stroke-width="26" stroke-linecap="round" stroke-linejoin="round">
    <path d="M256 168c-30-26-72-34-118-30-10 1-18 9-18 19v170c0 11 10 20 21 19 42-4 80 4 115 28"/>
    <path d="M256 168c30-26 72-34 118-30 10 1 18 9 18 19v170c0 11-10 20-21 19-42-4-80 4-115 28"/>
    <path d="M256 168v225"/>
  </g>
</svg>
